HIERARCHY
ROOT Hips
{
  OFFSET -33.9132 29.2015 117.021
  CHANNELS 6 Xposition Yposition Zposition Zrotation Xrotation Yrotation
  JOINT LeftUpLeg
  {
    OFFSET 8.64259 1.95398 -2.38835
    CHANNELS 3 Zrotation Xrotation Yrotation
    JOINT LeftLeg
    {
      OFFSET 43.7702 0 0
      CHANNELS 3 Zrotation Xrotation Yrotation
      JOINT LeftFoot
      {
        OFFSET 40.6238 0 0
        CHANNELS 3 Zrotation Xrotation Yrotation
        JOINT LeftToeBase
        {
          OFFSET 12.7242 0 0
          CHANNELS 3 Zrotation Xrotation Yrotation
          End Site
          {
            OFFSET 0 0 0
          }
        }
      }
    }
  }
  JOINT RightUpLeg
  {
    OFFSET -8.2249 1.95398 -2.59336
    CHANNELS 3 Zrotation Xrotation Yrotation
    JOINT RightLeg
    {
      OFFSET 43.5653 0 0
      CHANNELS 3 Zrotation Xrotation Yrotation
      JOINT RightFoot
      {
        OFFSET 40.6238 0 0
        CHANNELS 3 Zrotation Xrotation Yrotation
        JOINT RightToeBase
        {
          OFFSET 12.7242 0 0
          CHANNELS 3 Zrotation Xrotation Yrotation
          End Site
          {
            OFFSET 0 0 0
          }
        }
      }
    }
  }
  JOINT Spine
  {
    OFFSET 0.165834 0.87714 6.61349
    CHANNELS 3 Zrotation Xrotation Yrotation
    JOINT Spine1
    {
      OFFSET 7.38963 1.71661e-005 0
      CHANNELS 3 Zrotation Xrotation Yrotation
      JOINT Spine2
      {
        OFFSET 11.9445 1.14441e-005 0
        CHANNELS 3 Zrotation Xrotation Yrotation
        JOINT Spine3
        {
          OFFSET 14.7254 4.19617e-005 0
          CHANNELS 3 Zrotation Xrotation Yrotation
          JOINT Spine4
          {
            OFFSET 10.9679 0 0
            CHANNELS 3 Zrotation Xrotation Yrotation
            JOINT RightShoulder
            {
              OFFSET 2.46616 -1.6653 3.69651
              CHANNELS 3 Zrotation Xrotation Yrotation
              JOINT RightArm
              {
                OFFSET 13.0012 0 0
                CHANNELS 3 Zrotation Xrotation Yrotation
                JOINT RightForeArm
                {
                  OFFSET 28.7848 1.62311e-005 0
                  CHANNELS 3 Zrotation Xrotation Yrotation
                  JOINT RightHand
                  {
                    OFFSET 26.5688 1.62095e-005 0
                    CHANNELS 3 Zrotation Xrotation Yrotation
                    End Site
                    {
                      OFFSET 0 0 0
                    }
                  }
                }
              }
            }
            JOINT LeftShoulder
            {
              OFFSET 2.38034 -1.29275 -3.7523
              CHANNELS 3 Zrotation Xrotation Yrotation
              JOINT LeftArm
              {
                OFFSET 16.3182 6.07031e-005 0
                CHANNELS 3 Zrotation Xrotation Yrotation
                JOINT LeftForeArm
                {
                  OFFSET 27.0901 0 0
                  CHANNELS 3 Zrotation Xrotation Yrotation
                  JOINT LeftHand
                  {
                    OFFSET 24.5451 1.51738e-005 0
                    CHANNELS 3 Zrotation Xrotation Yrotation
                    End Site
                    {
                      OFFSET 0 0 0
                    }
                  }
                }
              }
            }
            JOINT Neck
            {
              OFFSET 5.0226 -0.0266342 0
              CHANNELS 3 Zrotation Xrotation Yrotation
              JOINT Head
              {
                OFFSET 6.69364 2.86102e-005 0
                CHANNELS 3 Zrotation Xrotation Yrotation
                End Site
                {
                  OFFSET 0 0 0
                }
              }
            }
          }
        }
      }
    }
  }
}
MOTION
Frames:	14
Frame Time:	0.0416667
23.3331 97.3679 11.805 -108.554 -54.1587 -108.418 -170.517 10.2104 97.4489 -67.4413 18.7399 2.24625 67.8269 5.12894 -0.92104 11.5809 -11.8831 5.38731 175.904 6.3368 100.101 -27.2241 4.17487 3.92785 72.9087 -6.70465 -4.72899 11.5433 5.92906 5.35274 -0.259126 7.76413 -89.6866 11.3463 -0.369405 0.661069 -0.324799 -0.339939 0.67668 -22.8595 -0.550991 0.519496 -2.84682 -0.551001 0.51948 92.5595 -27.4701 -102.462 54.9958 4.83665 0.999936 -5.13286 -39.4719 -5.35466 -19.4631 3.2044 -24.3867 -88.2395 -49.0376 81.1843 -20.9036 -14.1832 -16.8076 -9.33031 32.5207 -0.0521564 10.2111 -0.252062 -8.61397 -3.03982 -2.71148 -15.3985 -5.34574 -0.759657 -8.5855 
20.8403 97.4925 13.7486 -101.157 -36.7316 -100.354 -175.684 18.3095 95.7701 -66.4481 3.59018 4.31514 73.1815 9.4191 2.02939 5.50175 -14.958 4.45124 178.726 3.66995 102.082 -27.1963 -11.5421 0.98415 72.146 -7.84337 -6.7067 11.6958 5.77023 5.55513 0.515324 7.83696 -89.6981 11.1974 1.16619 0.486437 -0.473143 1.18647 0.434635 -23.0106 0.966062 0.81445 -2.99791 0.966073 0.814453 91.4 -28.8155 -104.387 49.3745 4.15981 -7.90938 -5.18911 -40.3471 -5.38583 -22.6696 4.11027 -26.168 -86.8164 -47.8566 83.1488 -21.5056 -14.7134 3.42964 -9.81439 17.966 -0.0150275 9.9211 -0.612392 -10.4052 -3.33582 -2.09168 -18.9714 -4.2864 0.141546 -9.44364 
18.7103 97.5178 15.479 -98.3461 -17.1731 -95.5362 -179.992 21.7982 93.5088 -59.8923 1.80974 5.53807 77.416 12.8108 2.63269 2.84059 -16.1426 3.7971 -179.065 0.573937 102.19 -30.5143 -27.097 -3.05202 72.6153 -9.06848 -6.72761 10.6344 5.15773 8.04571 1.31673 8.07397 -89.6663 10.7236 2.77604 0.410256 -0.944418 2.79136 0.287589 -23.4994 2.52432 1.22609 -3.48677 2.52431 1.22608 89.9721 -29.9724 -106.824 45.8693 3.37928 -16.1085 -5.19846 -40.4916 -5.39167 -24.5987 3.89369 -23.3784 -86.1375 -47.3452 84.1156 -25.0976 -10.5728 14.0524 -11.5327 23.825 -0.0220304 2.77541 -0.159935 -12.2266 -4.45938 -1.25706 -20.2022 -3.33955 0.83346 -10.8206 
15.689 97.6957 17.1306 -97.6785 0.212951 -94.954 178.692 23.3276 89.4346 -47.906 10.4026 4.41066 73.4632 9.78454 0.0249048 9.65405 -13.5665 6.12917 179.915 -3.57845 98.9614 -33.1338 -43.0154 -5.70632 72.603 -10.3032 -6.16004 10.8901 4.99235 8.18643 1.83026 8.27766 -89.5387 10.3124 3.85765 0.582763 -1.35289 3.87956 0.412149 -23.9266 3.50397 1.71652 -3.91394 3.50395 1.71651 88.5467 -29.2889 -109.932 45.2803 2.48816 -20.1996 -5.45247 -44.1664 -5.54126 -21.6508 3.43898 -23.6254 -86.6251 -48.5583 83.5594 -26.8644 -6.87881 14.6539 -12.0793 40.7447 -0.0291892 -6.56362 1.31525 -15.5542 -5.02734 -0.94845 -19.5921 -3.97496 1.0712 -13.537 
11.0416 97.3652 17.821 -96.7996 9.3795 -93.0281 179.568 22.4651 84.971 -28.5112 24.543 0.998816 67.4281 5.13852 -2.67567 24.66 -8.04483 12.4775 178.257 -6.99969 95.6453 -34.7417 -53.456 -7.61917 72.9224 -12.451 -7.61717 9.40188 4.45756 10.7735 1.89038 8.23285 -89.3919 10.3966 4.04443 0.853951 -1.26816 4.07807 0.674829 -23.8432 3.6006 2.03136 -3.83051 3.60061 2.03135 87.9555 -28.6892 -111.373 46.9013 1.44386 -20.43 -5.94823 -50.2651 -5.87377 -20.8336 2.88828 -21.3409 -86.5222 -49.2874 83.8333 -25.3048 -4.93438 12.1908 -12.5064 42.2869 -0.0320956 -3.85243 0.909423 -15.144 -5.42678 -1.22278 -18.3538 -4.16884 0.6582 -15.1915 
4.77296 96.359 17.4097 -96.052 16.2714 -92.356 -179.759 21.0154 80.7384 -19.7933 21.4451 -0.927132 65.4108 3.0336 -5.79729 24.598 -7.83307 12.1023 177.087 -10.975 93.2185 -36.2764 -57.0323 -9.70188 73.9983 -13.7142 -7.16913 8.89259 3.96434 12.3258 1.80962 7.99835 -89.2826 10.8618 3.93458 1.05808 -0.803491 3.97731 0.883639 -23.3737 3.43457 2.19278 -3.36103 3.43456 2.19278 87.338 -28.8253 -112.537 48.0699 1.76827 -17.3399 -6.38808 -54.6549 -6.1971 -16.7787 2.16054 -20.4155 -86.5746 -49.1303 83.7284 -19.8723 -6.64194 8.99387 -12.4609 32.8153 -0.0298197 2.35605 -0.00842856 -13.1242 -6.98507 -1.78786 -16.7914 -3.11011 -0.418297 -15.7365 
-3.12011 96.1276 15.1846 -96.5199 22.5559 -93.7358 179.902 21.2085 77.9817 -29.1178 22.2496 -0.698917 64.4098 2.24304 -3.80812 14.0854 -11.3397 6.81753 176.299 -16.0982 90.1005 -40.2576 -57.0634 -15.6471 71.0864 -9.45901 -5.0598 12.5558 2.08581 13.9808 1.67255 7.75572 -88.9428 11.339 3.82127 1.7212 -0.327229 3.89332 1.55116 -22.8862 3.12737 2.79058 -2.87361 3.12734 2.79058 87.1883 -29.6862 -112.429 49.1265 2.85991 -12.3432 -7.04027 -59.8194 -6.72105 -14.181 1.40047 -17.0005 -86.4034 -50.398 84.1855 -12.7248 -13.4778 4.84379 -10.4722 21.0213 -0.0279464 6.93686 -0.460301 -11.2228 -9.56066 -2.04534 -17.2777 -3.09773 -1.04291 -16.1486 
-9.97382 96.0126 12.4085 -98.1437 29.4953 -94.4082 -177.823 16.5936 77.2521 -32.9352 17.7948 -2.36979 70.6123 5.99783 -3.27924 13.6902 -10.5954 5.32168 173.123 -16.2439 84.5563 -42.8719 -52.1027 -12.9314 62.075 -1.02026 1.63582 31.3362 -2.22985 3.92708 1.48068 7.64734 -88.6917 11.541 3.55771 2.24224 -0.1267 3.65295 2.08337 -22.6715 2.71968 3.20775 -2.65889 2.71965 3.20775 88.2835 -28.9088 -110.618 51.5401 3.24433 -7.6664 -6.78521 -57.9668 -6.51149 -13.4474 1.10535 -15.2372 -86.2564 -50.128 84.3651 -10.3525 -17.6471 -1.75502 -9.58292 9.65592 -0.0272259 7.26602 -0.4547 -10.209 -10.5941 -1.99165 -17.0385 -4.28983 -0.993726 -16.1624 
-14.5608 96.7897 10.5457 -99.281 39.4347 -92.3375 -176.374 11.5067 78.4678 -31.5643 11.3777 -3.37337 74.4076 7.63583 -4.62517 15.4415 -10.4852 6.81836 173.868 -4.42976 81.2322 -57.0094 -37.0597 -9.53934 66.9267 -5.05849 -1.55794 29.7648 -1.14334 2.95489 1.18507 7.71255 -88.9206 11.4238 2.86188 1.86052 -0.24512 2.94097 1.73271 -22.7857 2.17057 2.63455 -2.77307 2.17059 2.63455 89.1482 -27.4795 -109.508 50.0685 4.49214 -5.8894 -6.93253 -59.0601 -6.63134 -17.863 2.0136 -18.4913 -86.5221 -49.158 83.813 -10.8451 -14.9417 -7.30942 -10.5357 11.7428 -0.0279266 7.40755 -0.819038 -13.8471 -9.16152 -0.53023 -15.3413 -3.74445 0.485716 -12.8463 
-17.929 98.0345 8.89064 -101.071 47.6094 -88.0753 -175.366 5.49277 80.937 -26.3423 7.84059 -3.69776 75.2765 8.05038 -5.22111 15.5548 -8.98706 4.47955 177.112 8.54125 83.6222 -60.6633 -18.1719 -7.1918 73.3809 -10.5534 -4.54324 25.5149 0.493445 3.62841 0.611088 7.90822 -89.2152 11.0462 1.58033 1.40979 -0.624461 1.64085 1.33887 -23.1577 1.08365 1.81949 -3.145 1.08366 1.81949 89.1767 -28.9099 -108.834 47.1208 5.6723 -6.23434 -5.87766 -49.477 -5.82214 -19.8005 1.99268 -16.9937 -87.1334 -46.5391 82.4302 -9.46499 -12.168 -13.1067 -11.6963 15.2976 -0.0286267 7.19449 -1.09433 -17.2225 -9.19095 2.23639 -14.2645 -2.91304 3.09384 -10.2209 
-20.9639 98.9975 6.90615 -101.011 52.1098 -84.6986 -175.128 1.46742 82.8372 -21.9016 3.46187 -2.95069 76.6847 8.76082 -5.39156 13.4338 -9.90581 4.00038 -178.603 18.2778 89.2246 -50.8204 -10.3752 -6.59991 71.7041 -9.15258 -4.71123 19.9971 2.44946 4.90722 -0.0269116 7.99301 -89.5691 10.8868 0.145793 0.845026 -0.784431 0.182834 0.837795 -23.3174 -0.114905 0.849779 -3.30473 -0.114912 0.849776 89.6079 -29.7986 -107.617 46.3166 6.39144 -4.89709 -5.24923 -41.2668 -5.42203 -20.7936 1.97548 -16.3191 -87.1121 -44.6115 82.1085 -7.95355 -12.4778 -21.8834 -12.0445 19.6579 -0.0293839 5.17617 -0.665272 -16.146 -9.40925 4.44063 -13.2544 -2.73878 5.19988 -6.51324 
-24.2051 99.2364 4.16701 -99.2947 51.9252 -83.4199 -174.99 -1.42046 84.3307 -19.7583 2.6903 -2.02951 79.4436 10.2463 -5.52871 12.1347 -10.6884 4.06986 -176.228 22.62 93.1317 -34.9074 -15.5433 -5.98443 66.5257 -5.5455 -4.88183 20.1631 2.03207 5.94331 -0.732853 8.07574 -89.9486 10.7258 -1.43574 0.233061 -0.944396 -1.42409 0.296043 -23.4857 -1.43939 -0.209289 -3.47305 -1.4394 -0.209296 89.9147 -30.5763 -106.705 45.956 7.54272 -1.158 -5.16723 -40.0108 -5.37379 -19.1958 1.89015 -16.8253 -87.4738 -42.5667 81.1281 -12.4089 -15.0331 -30.9582 -10.659 22.4851 -0.0298048 6.75677 -0.720301 -15.2265 -7.34412 5.07979 -12.2618 -3.46673 6.0165 -3.35216 
-28.6432 98.8012 0.24538 -97.7442 49.6988 -83.641 -174.581 -6.2836 85.3947 -16.4441 4.72958 -1.73309 81.7465 11.4896 -5.8837 14.3768 -9.89954 4.86702 -179.067 22.0571 95.6295 -18.6836 -14.6681 -1.77184 65.0404 -3.99829 -2.1347 20.8515 1.97105 5.25878 -1.20554 8.12525 -90.1511 10.6244 -2.47039 -0.0764801 -1.04416 -2.47134 0.0323735 -23.5966 -2.33316 -0.815808 -3.58399 -2.33312 -0.815809 90.3795 -32.1329 -105.237 46.2867 8.84762 4.26353 -5.21611 -40.7596 -5.40131 -15.6743 1.3171 -15.2394 -88.5179 -40.9012 79.0413 -20.0919 -13.7931 -38.1742 -9.77307 23.8434 -0.0297767 8.7279 -1.04081 -15.9517 -5.70171 4.28963 -13.966 -3.98684 5.52552 0.800363 
-34.3002 97.2691 -5.28466 -96.8404 49.4296 -83.1419 -173.749 -12.5291 86.6237 -13.55 4.92021 -1.51879 85.3457 13.6716 -5.94591 16.3729 -8.47069 4.38936 179.755 18.8183 98.8954 -8.77351 -8.50179 1.78115 62.8858 -2.9622 -2.32248 24.0133 1.02196 4.01012 -1.3588 8.06061 -90.4229 10.747 -2.9007 -0.573198 -0.920805 -2.92314 -0.444876 -23.4765 -2.59427 -1.41899 -3.46385 -2.59427 -1.41899 90.2773 -32.9705 -105.142 46.518 10.0881 9.3871 -5.21782 -40.7851 -5.40237 -10.7821 0.79627 -14.3887 -89.4137 -42.7197 77.9942 -26.0092 -10.2945 -40.9494 -9.65402 27.99 -0.0303281 7.31637 -1.37229 -22.2955 -5.22454 3.78898 -13.1911 -4.19111 4.98975 2.31932 
